<svg width="200" height="200" viewBox="0 0 200 200" fill="none" xmlns="http://www.w3.org/2000/svg">
<rect width="200" height="200" rx="41" fill="black"/>
<path d="M80.9827 68.4577C84.6673 63.2343 91.8886 61.987 97.112 65.6716V65.6716C102.335 69.3563 103.583 76.5776 99.898 81.8009L65.5866 130.44C61.902 135.664 54.6807 136.911 49.4573 133.226V133.226C44.234 129.542 42.9867 122.32 46.6713 117.097L80.9827 68.4577Z" fill="white"/>
<path d="M122.125 69.5597C125.81 64.3363 133.031 63.089 138.255 66.7736V66.7736C143.478 70.4583 144.725 77.6796 141.041 82.9029L106.729 131.542C103.045 136.766 95.8235 138.013 90.6002 134.328V134.328C85.3768 130.644 84.1295 123.422 87.8142 118.199L122.125 69.5597Z" fill="white"/>
<path d="M157.505 122.147C157.505 130.054 151.095 136.465 143.187 136.465C135.28 136.465 128.869 130.054 128.869 122.147C128.869 114.239 135.28 107.829 143.187 107.829C151.095 107.829 157.505 114.239 157.505 122.147Z" fill="white"/>
</svg>
